<mxfile host="app.diagrams.net" agent="Mozilla/5.0 (Windows NT 10.0; Win64; x64) AppleWebKit/537.36 (KHTML, like Gecko) Chrome/135.0.0.0 Safari/537.36 Edg/135.0.0.0" version="26.2.8">
  <diagram name="Page-1" id="c37626ed-c26b-45fb-9056-f9ebc6bb27b6">
    <mxGraphModel dx="6750" dy="1985" grid="0" gridSize="10" guides="1" tooltips="1" connect="1" arrows="1" fold="1" page="0" pageScale="1" pageWidth="1589" pageHeight="795" background="#ffffff" math="0" shadow="1">
      <root>
        <mxCell id="0" />
        <mxCell id="1" parent="0" />
        <mxCell id="vXIsHff3W-B7BgybX8nb-285" value="" style="shape=image;verticalLabelPosition=bottom;labelBackgroundColor=default;verticalAlign=top;aspect=fixed;imageAspect=0;image=https://img.freepik.com/vetores-premium/design-de-plano-de-fundo-de-tecnologia-de-placa-de-circuito_268461-129.jpg;" parent="1" vertex="1">
          <mxGeometry x="-3176" y="0.92" width="3214.16" height="1607.08" as="geometry" />
        </mxCell>
        <mxCell id="vXIsHff3W-B7BgybX8nb-118" value="&lt;font style=&quot;font-size: 20px;&quot;&gt;&lt;b style=&quot;&quot;&gt;WAN 1&lt;/b&gt;&lt;/font&gt;" style="ellipse;shape=cloud;whiteSpace=wrap;html=1;rounded=0;shadow=0;comic=0;strokeWidth=1;fontFamily=Verdana;fontSize=12;flipH=1;" parent="1" vertex="1">
          <mxGeometry x="-417.39047324286" y="13" width="169.99243184815634" height="112.08721756749003" as="geometry" />
        </mxCell>
        <mxCell id="vXIsHff3W-B7BgybX8nb-119" value="&lt;font face=&quot;Comic Sans MS&quot; style=&quot;font-size: 20px;&quot;&gt;&lt;b&gt;WAN 2&lt;/b&gt;&lt;/font&gt;" style="ellipse;shape=cloud;whiteSpace=wrap;html=1;rounded=0;shadow=0;comic=0;strokeWidth=1;fontFamily=Verdana;fontSize=12;flipH=1;" parent="1" vertex="1">
          <mxGeometry x="-228.51898168823527" y="18.773013871374527" width="169.99243184815634" height="112.08721756749003" as="geometry" />
        </mxCell>
        <mxCell id="vXIsHff3W-B7BgybX8nb-120" style="edgeStyle=none;html=1;labelBackgroundColor=none;startFill=0;endArrow=none;endFill=0;strokeWidth=2;fontFamily=Verdana;fontSize=12;entryX=0.5;entryY=0;entryDx=0;entryDy=0;entryPerimeter=0;exitX=0.55;exitY=0.95;exitDx=0;exitDy=0;exitPerimeter=0;" parent="1" source="vXIsHff3W-B7BgybX8nb-119" target="vXIsHff3W-B7BgybX8nb-121" edge="1">
          <mxGeometry relative="1" as="geometry">
            <mxPoint x="-1551.8779432295985" y="185.79476233401644" as="sourcePoint" />
            <mxPoint x="-2006.1200152172953" y="745.0256112728911" as="targetPoint" />
          </mxGeometry>
        </mxCell>
        <mxCell id="vXIsHff3W-B7BgybX8nb-121" value="&lt;b&gt;&lt;font style=&quot;color: rgb(255, 255, 255); font-size: 35px;&quot;&gt;Fortinet&amp;nbsp;&lt;br&gt;Loja4&lt;/font&gt;&lt;/b&gt;" style="shape=mxgraph.cisco.security.firewall;sketch=0;html=1;pointerEvents=1;dashed=0;fillColor=#036897;strokeColor=#ffffff;strokeWidth=2;verticalLabelPosition=bottom;verticalAlign=top;align=center;outlineConnect=0;rotation=0;flipH=1;" parent="1" vertex="1">
          <mxGeometry x="-285.37859073727986" y="177.0036080149976" width="149.09172301436666" height="149.44962342332002" as="geometry" />
        </mxCell>
        <mxCell id="vXIsHff3W-B7BgybX8nb-123" value="&lt;b style=&quot;&quot;&gt;&lt;font style=&quot;color: rgb(255, 255, 255); font-size: 25px;&quot;&gt;&amp;nbsp;VPN-LOJ4-01-P&lt;/font&gt;&lt;/b&gt;" style="html=1;strokeWidth=1;shadow=0;dashed=0;shape=mxgraph.ios7.misc.vpn;fillColor=#007AFF;strokeColor=none;buttonText=;strokeColor2=#222222;fontColor=#222222;fontSize=8;verticalLabelPosition=bottom;verticalAlign=top;align=center;sketch=0;flipH=0;" parent="1" vertex="1">
          <mxGeometry x="-520.858438383741" y="158.32240508708253" width="86.38959651299751" height="63.73586881288648" as="geometry" />
        </mxCell>
        <mxCell id="vXIsHff3W-B7BgybX8nb-124" style="edgeStyle=none;html=1;labelBackgroundColor=none;startFill=0;endArrow=none;endFill=0;strokeWidth=2;fontFamily=Verdana;fontSize=12;exitX=1.023;exitY=0.743;exitDx=0;exitDy=0;exitPerimeter=0;" parent="1" source="vXIsHff3W-B7BgybX8nb-123" target="vXIsHff3W-B7BgybX8nb-121" edge="1">
          <mxGeometry relative="1" as="geometry">
            <mxPoint x="-42.802177251141075" y="144.036779318677" as="sourcePoint" />
            <mxPoint x="-14.934565472755821" y="198.9814938125446" as="targetPoint" />
          </mxGeometry>
        </mxCell>
        <mxCell id="vXIsHff3W-B7BgybX8nb-125" value="&lt;b style=&quot;&quot;&gt;&lt;font style=&quot;color: rgb(255, 255, 255); font-size: 25px;&quot;&gt;&amp;nbsp;VPN-LOJ4-01-S&lt;/font&gt;&lt;/b&gt;" style="html=1;strokeWidth=1;shadow=0;dashed=0;shape=mxgraph.ios7.misc.vpn;fillColor=#007AFF;strokeColor=none;buttonText=;strokeColor2=#222222;fontColor=#222222;fontSize=8;verticalLabelPosition=bottom;verticalAlign=top;align=center;sketch=0;flipH=0;" parent="1" vertex="1">
          <mxGeometry x="-520.859910264644" y="292.3875084521197" width="86.38959651299751" height="63.73586881288648" as="geometry" />
        </mxCell>
        <mxCell id="vXIsHff3W-B7BgybX8nb-126" style="edgeStyle=none;html=1;labelBackgroundColor=none;startFill=0;endArrow=none;endFill=0;strokeWidth=2;fontFamily=Verdana;fontSize=12;exitX=1.032;exitY=0.259;exitDx=0;exitDy=0;exitPerimeter=0;" parent="1" source="vXIsHff3W-B7BgybX8nb-125" target="vXIsHff3W-B7BgybX8nb-121" edge="1">
          <mxGeometry relative="1" as="geometry">
            <mxPoint x="-59.52274431816886" y="268.2118340748179" as="sourcePoint" />
            <mxPoint x="-2.059728831135544" y="352.8266943953741" as="targetPoint" />
          </mxGeometry>
        </mxCell>
        <mxCell id="vXIsHff3W-B7BgybX8nb-158" style="edgeStyle=none;html=1;labelBackgroundColor=none;startFill=0;endArrow=none;endFill=0;strokeWidth=2;fontFamily=Verdana;fontSize=12;entryX=1;entryY=0;entryDx=0;entryDy=0;entryPerimeter=0;exitX=0.55;exitY=0.95;exitDx=0;exitDy=0;exitPerimeter=0;" parent="1" source="vXIsHff3W-B7BgybX8nb-118" target="vXIsHff3W-B7BgybX8nb-121" edge="1">
          <mxGeometry relative="1" as="geometry">
            <mxPoint x="-40.50588604060022" y="115.4655277818658" as="sourcePoint" />
            <mxPoint x="-182.63070611037028" y="198.9814938125446" as="targetPoint" />
          </mxGeometry>
        </mxCell>
        <mxCell id="vXIsHff3W-B7BgybX8nb-160" value="&lt;font face=&quot;Comic Sans MS&quot; style=&quot;font-size: 20px;&quot;&gt;&lt;b&gt;WAN 1&lt;/b&gt;&lt;/font&gt;" style="ellipse;shape=cloud;whiteSpace=wrap;html=1;rounded=0;shadow=0;comic=0;strokeWidth=1;fontFamily=Verdana;fontSize=12;flipH=1;" parent="1" vertex="1">
          <mxGeometry x="-422.2211466237777" y="420.957606516229" width="169.99243184815634" height="112.08721756749003" as="geometry" />
        </mxCell>
        <mxCell id="vXIsHff3W-B7BgybX8nb-161" value="&lt;font face=&quot;Comic Sans MS&quot; style=&quot;font-size: 20px;&quot;&gt;&lt;b&gt;WAN 2&lt;/b&gt;&lt;/font&gt;" style="ellipse;shape=cloud;whiteSpace=wrap;html=1;rounded=0;shadow=0;comic=0;strokeWidth=1;fontFamily=Verdana;fontSize=12;flipH=1;" parent="1" vertex="1">
          <mxGeometry x="-192.99243184815577" y="420.957606516229" width="169.99243184815634" height="112.08721756749003" as="geometry" />
        </mxCell>
        <mxCell id="vXIsHff3W-B7BgybX8nb-162" style="edgeStyle=none;html=1;labelBackgroundColor=none;startFill=0;endArrow=none;endFill=0;strokeWidth=2;fontFamily=Verdana;fontSize=12;exitX=0.55;exitY=0.95;exitDx=0;exitDy=0;exitPerimeter=0;entryX=0.25;entryY=0.09;entryDx=0;entryDy=0;entryPerimeter=0;" parent="1" source="vXIsHff3W-B7BgybX8nb-161" target="vXIsHff3W-B7BgybX8nb-163" edge="1">
          <mxGeometry relative="1" as="geometry">
            <mxPoint x="-1564.7477754761396" y="573.0464924315822" as="sourcePoint" />
            <mxPoint x="-2018.9898474638364" y="1132.2773413704567" as="targetPoint" />
          </mxGeometry>
        </mxCell>
        <mxCell id="vXIsHff3W-B7BgybX8nb-163" value="&lt;b&gt;&lt;font style=&quot;color: rgb(255, 255, 255); font-size: 35px;&quot;&gt;Fortinet&amp;nbsp;&lt;br&gt;Loja5&lt;/font&gt;&lt;/b&gt;" style="shape=mxgraph.cisco.security.firewall;sketch=0;html=1;pointerEvents=1;dashed=0;fillColor=#036897;strokeColor=#ffffff;strokeWidth=2;verticalLabelPosition=bottom;verticalAlign=top;align=center;outlineConnect=0;rotation=0;flipH=1;" parent="1" vertex="1">
          <mxGeometry x="-298.2484229838228" y="564.2553381125633" width="149.09172301436666" height="149.44962342332002" as="geometry" />
        </mxCell>
        <mxCell id="vXIsHff3W-B7BgybX8nb-164" value="&lt;b style=&quot;&quot;&gt;&lt;font style=&quot;color: rgb(255, 255, 255); font-size: 25px;&quot;&gt;&amp;nbsp;VPN-LOJ5-01-P&lt;/font&gt;&lt;/b&gt;" style="html=1;strokeWidth=1;shadow=0;dashed=0;shape=mxgraph.ios7.misc.vpn;fillColor=#007AFF;strokeColor=none;buttonText=;strokeColor2=#222222;fontColor=#222222;fontSize=8;verticalLabelPosition=bottom;verticalAlign=top;align=center;sketch=0;flipH=0;" parent="1" vertex="1">
          <mxGeometry x="-520.8549058695717" y="545.5741351846483" width="86.38959651299751" height="63.73586881288648" as="geometry" />
        </mxCell>
        <mxCell id="vXIsHff3W-B7BgybX8nb-165" style="edgeStyle=none;html=1;labelBackgroundColor=none;startFill=0;endArrow=none;endFill=0;strokeWidth=2;fontFamily=Verdana;fontSize=12;exitX=0.991;exitY=0.491;exitDx=0;exitDy=0;exitPerimeter=0;" parent="1" source="vXIsHff3W-B7BgybX8nb-164" target="vXIsHff3W-B7BgybX8nb-163" edge="1">
          <mxGeometry relative="1" as="geometry">
            <mxPoint x="-55.67200949768312" y="531.2885094162426" as="sourcePoint" />
            <mxPoint x="-27.804397719296958" y="586.2332239101104" as="targetPoint" />
          </mxGeometry>
        </mxCell>
        <mxCell id="vXIsHff3W-B7BgybX8nb-166" value="&lt;b style=&quot;&quot;&gt;&lt;font style=&quot;color: rgb(255, 255, 255); font-size: 25px;&quot;&gt;&amp;nbsp;VPN-LOJ5-01-S&lt;/font&gt;&lt;/b&gt;" style="html=1;strokeWidth=1;shadow=0;dashed=0;shape=mxgraph.ios7.misc.vpn;fillColor=#007AFF;strokeColor=none;buttonText=;strokeColor2=#222222;fontColor=#222222;fontSize=8;verticalLabelPosition=bottom;verticalAlign=top;align=center;sketch=0;flipH=0;" parent="1" vertex="1">
          <mxGeometry x="-520.856377750476" y="668.6157370312493" width="86.38959651299751" height="63.73586881288648" as="geometry" />
        </mxCell>
        <mxCell id="vXIsHff3W-B7BgybX8nb-167" style="edgeStyle=none;html=1;labelBackgroundColor=none;startFill=0;endArrow=none;endFill=0;strokeWidth=2;fontFamily=Verdana;fontSize=12;exitX=1.028;exitY=0.367;exitDx=0;exitDy=0;exitPerimeter=0;" parent="1" source="vXIsHff3W-B7BgybX8nb-166" target="vXIsHff3W-B7BgybX8nb-163" edge="1">
          <mxGeometry relative="1" as="geometry">
            <mxPoint x="-72.39257656471" y="655.4635641723837" as="sourcePoint" />
            <mxPoint x="-14.92956107767668" y="740.0784244929397" as="targetPoint" />
          </mxGeometry>
        </mxCell>
        <mxCell id="vXIsHff3W-B7BgybX8nb-168" style="edgeStyle=none;html=1;labelBackgroundColor=none;startFill=0;endArrow=none;endFill=0;strokeWidth=2;fontFamily=Verdana;fontSize=12;entryX=1;entryY=0;entryDx=0;entryDy=0;entryPerimeter=0;exitX=0.55;exitY=0.95;exitDx=0;exitDy=0;exitPerimeter=0;" parent="1" source="vXIsHff3W-B7BgybX8nb-160" target="vXIsHff3W-B7BgybX8nb-163" edge="1">
          <mxGeometry relative="1" as="geometry">
            <mxPoint x="-53.37571828714226" y="502.71725787943166" as="sourcePoint" />
            <mxPoint x="-195.50053835691187" y="586.2332239101104" as="targetPoint" />
          </mxGeometry>
        </mxCell>
        <mxCell id="vXIsHff3W-B7BgybX8nb-170" value="&lt;font face=&quot;Comic Sans MS&quot; style=&quot;font-size: 20px;&quot;&gt;&lt;b&gt;WAN 1&lt;/b&gt;&lt;/font&gt;" style="ellipse;shape=cloud;whiteSpace=wrap;html=1;rounded=0;shadow=0;comic=0;strokeWidth=1;fontFamily=Verdana;fontSize=12;flipH=1;" parent="1" vertex="1">
          <mxGeometry x="-422.2215518320522" y="817.3771744803801" width="169.99243184815634" height="112.08721756749003" as="geometry" />
        </mxCell>
        <mxCell id="vXIsHff3W-B7BgybX8nb-171" value="&lt;font face=&quot;Comic Sans MS&quot; style=&quot;font-size: 20px;&quot;&gt;&lt;b&gt;WAN 2&lt;/b&gt;&lt;/font&gt;" style="ellipse;shape=cloud;whiteSpace=wrap;html=1;rounded=0;shadow=0;comic=0;strokeWidth=1;fontFamily=Verdana;fontSize=12;flipH=1;" parent="1" vertex="1">
          <mxGeometry x="-201.06428170062918" y="817.3771744803801" width="169.99243184815634" height="112.08721756749003" as="geometry" />
        </mxCell>
        <mxCell id="vXIsHff3W-B7BgybX8nb-172" style="edgeStyle=none;html=1;labelBackgroundColor=none;startFill=0;endArrow=none;endFill=0;strokeWidth=2;fontFamily=Verdana;fontSize=12;entryX=0.25;entryY=0.09;entryDx=0;entryDy=0;entryPerimeter=0;exitX=0.55;exitY=0.95;exitDx=0;exitDy=0;exitPerimeter=0;" parent="1" source="vXIsHff3W-B7BgybX8nb-171" target="vXIsHff3W-B7BgybX8nb-173" edge="1">
          <mxGeometry relative="1" as="geometry">
            <mxPoint x="-1561.35817393385" y="973.7380906605501" as="sourcePoint" />
            <mxPoint x="-2015.6002459215465" y="1532.9689395994253" as="targetPoint" />
          </mxGeometry>
        </mxCell>
        <mxCell id="vXIsHff3W-B7BgybX8nb-173" value="&lt;b&gt;&lt;font style=&quot;color: rgb(255, 255, 255); font-size: 35px;&quot;&gt;Fortinet&amp;nbsp;&lt;br&gt;Loja6&lt;/font&gt;&lt;/b&gt;" style="shape=mxgraph.cisco.security.firewall;sketch=0;html=1;pointerEvents=1;dashed=0;fillColor=#036897;strokeColor=#ffffff;strokeWidth=2;verticalLabelPosition=bottom;verticalAlign=top;align=center;outlineConnect=0;rotation=0;flipH=1;" parent="1" vertex="1">
          <mxGeometry x="-294.8588214415322" y="964.9469363415316" width="149.09172301436666" height="149.44962342332002" as="geometry" />
        </mxCell>
        <mxCell id="vXIsHff3W-B7BgybX8nb-174" value="&lt;b style=&quot;&quot;&gt;&lt;font style=&quot;color: rgb(255, 255, 255); font-size: 25px;&quot;&gt;&amp;nbsp;VPN-LOJ6-01-P&lt;/font&gt;&lt;/b&gt;" style="html=1;strokeWidth=1;shadow=0;dashed=0;shape=mxgraph.ios7.misc.vpn;fillColor=#007AFF;strokeColor=none;buttonText=;strokeColor2=#222222;fontColor=#222222;fontSize=8;verticalLabelPosition=bottom;verticalAlign=top;align=center;sketch=0;flipH=0;" parent="1" vertex="1">
          <mxGeometry x="-517.4653043272815" y="946.2657334136167" width="86.38959651299751" height="63.73586881288648" as="geometry" />
        </mxCell>
        <mxCell id="vXIsHff3W-B7BgybX8nb-175" style="edgeStyle=none;html=1;labelBackgroundColor=none;startFill=0;endArrow=none;endFill=0;strokeWidth=2;fontFamily=Verdana;fontSize=12;exitX=0.964;exitY=0.591;exitDx=0;exitDy=0;exitPerimeter=0;" parent="1" source="vXIsHff3W-B7BgybX8nb-174" target="vXIsHff3W-B7BgybX8nb-173" edge="1">
          <mxGeometry relative="1" as="geometry">
            <mxPoint x="-52.28240795539341" y="931.9801076452109" as="sourcePoint" />
            <mxPoint x="-24.414796177008157" y="986.9248221390783" as="targetPoint" />
          </mxGeometry>
        </mxCell>
        <mxCell id="vXIsHff3W-B7BgybX8nb-176" value="&lt;b style=&quot;&quot;&gt;&lt;font style=&quot;color: rgb(255, 255, 255); font-size: 25px;&quot;&gt;&amp;nbsp;VPN-LOJ6-01-S&lt;/font&gt;&lt;/b&gt;" style="html=1;strokeWidth=1;shadow=0;dashed=0;shape=mxgraph.ios7.misc.vpn;fillColor=#007AFF;strokeColor=none;buttonText=;strokeColor2=#222222;fontColor=#222222;fontSize=8;verticalLabelPosition=bottom;verticalAlign=top;align=center;sketch=0;flipH=0;" parent="1" vertex="1">
          <mxGeometry x="-517.4667762081849" y="1065.4730738625003" width="86.38959651299751" height="63.73586881288648" as="geometry" />
        </mxCell>
        <mxCell id="vXIsHff3W-B7BgybX8nb-177" style="edgeStyle=none;html=1;labelBackgroundColor=none;startFill=0;endArrow=none;endFill=0;strokeWidth=2;fontFamily=Verdana;fontSize=12;exitX=1.009;exitY=0.642;exitDx=0;exitDy=0;exitPerimeter=0;" parent="1" source="vXIsHff3W-B7BgybX8nb-176" target="vXIsHff3W-B7BgybX8nb-173" edge="1">
          <mxGeometry relative="1" as="geometry">
            <mxPoint x="-439.02633745465846" y="1115.7679798386175" as="sourcePoint" />
            <mxPoint x="-11.539959535387425" y="1140.7700227219084" as="targetPoint" />
          </mxGeometry>
        </mxCell>
        <mxCell id="vXIsHff3W-B7BgybX8nb-178" style="edgeStyle=none;html=1;labelBackgroundColor=none;startFill=0;endArrow=none;endFill=0;strokeWidth=2;fontFamily=Verdana;fontSize=12;entryX=1;entryY=0;entryDx=0;entryDy=0;entryPerimeter=0;exitX=0.55;exitY=0.95;exitDx=0;exitDy=0;exitPerimeter=0;" parent="1" source="vXIsHff3W-B7BgybX8nb-170" target="vXIsHff3W-B7BgybX8nb-173" edge="1">
          <mxGeometry relative="1" as="geometry">
            <mxPoint x="-49.98611674485119" y="903.4088561083998" as="sourcePoint" />
            <mxPoint x="-192.11093681462262" y="986.9248221390783" as="targetPoint" />
          </mxGeometry>
        </mxCell>
        <mxCell id="vXIsHff3W-B7BgybX8nb-180" value="&lt;font face=&quot;Comic Sans MS&quot; style=&quot;font-size: 20px;&quot;&gt;&lt;b&gt;WAN 1&lt;/b&gt;&lt;/font&gt;" style="ellipse;shape=cloud;whiteSpace=wrap;html=1;rounded=0;shadow=0;comic=0;strokeWidth=1;fontFamily=Verdana;fontSize=12;flipH=1;" parent="1" vertex="1">
          <mxGeometry x="-427.0751956110739" y="1217.6408850300757" width="169.99243184815634" height="112.08721756749003" as="geometry" />
        </mxCell>
        <mxCell id="vXIsHff3W-B7BgybX8nb-181" value="&lt;font face=&quot;Comic Sans MS&quot; style=&quot;font-size: 20px;&quot;&gt;&lt;b&gt;WAN 2&lt;/b&gt;&lt;/font&gt;" style="ellipse;shape=cloud;whiteSpace=wrap;html=1;rounded=0;shadow=0;comic=0;strokeWidth=1;fontFamily=Verdana;fontSize=12;flipH=1;" parent="1" vertex="1">
          <mxGeometry x="-212.3750811950099" y="1217.6408850300757" width="169.99243184815634" height="112.08721756749003" as="geometry" />
        </mxCell>
        <mxCell id="vXIsHff3W-B7BgybX8nb-182" style="edgeStyle=none;html=1;labelBackgroundColor=none;startFill=0;endArrow=none;endFill=0;strokeWidth=2;fontFamily=Verdana;fontSize=12;entryX=0.25;entryY=0.09;entryDx=0;entryDy=0;entryPerimeter=0;exitX=0.55;exitY=0.95;exitDx=0;exitDy=0;exitPerimeter=0;" parent="1" source="vXIsHff3W-B7BgybX8nb-181" target="vXIsHff3W-B7BgybX8nb-183" edge="1">
          <mxGeometry relative="1" as="geometry">
            <mxPoint x="-1571.0869702779687" y="1368.6713850690105" as="sourcePoint" />
            <mxPoint x="-2025.3290422656642" y="1927.9022340078855" as="targetPoint" />
          </mxGeometry>
        </mxCell>
        <mxCell id="vXIsHff3W-B7BgybX8nb-183" value="&lt;b&gt;&lt;font style=&quot;color: rgb(255, 255, 255); font-size: 35px;&quot;&gt;Fortinet&amp;nbsp;&lt;br&gt;Loja7&lt;/font&gt;&lt;/b&gt;" style="shape=mxgraph.cisco.security.firewall;sketch=0;html=1;pointerEvents=1;dashed=0;fillColor=#036897;strokeColor=#ffffff;strokeWidth=2;verticalLabelPosition=bottom;verticalAlign=top;align=center;outlineConnect=0;rotation=0;flipH=1;" parent="1" vertex="1">
          <mxGeometry x="-304.5876177856503" y="1359.8802307499914" width="149.09172301436666" height="149.44962342332002" as="geometry" />
        </mxCell>
        <mxCell id="vXIsHff3W-B7BgybX8nb-184" value="&lt;b style=&quot;&quot;&gt;&lt;font style=&quot;color: rgb(255, 255, 255); font-size: 25px;&quot;&gt;&amp;nbsp;VPN-LOJ7-01-P&lt;/font&gt;&lt;/b&gt;" style="html=1;strokeWidth=1;shadow=0;dashed=0;shape=mxgraph.ios7.misc.vpn;fillColor=#007AFF;strokeColor=none;buttonText=;strokeColor2=#222222;fontColor=#222222;fontSize=8;verticalLabelPosition=bottom;verticalAlign=top;align=center;sketch=0;flipH=0;" parent="1" vertex="1">
          <mxGeometry x="-527.1941006713996" y="1341.199027822077" width="86.38959651299751" height="63.73586881288648" as="geometry" />
        </mxCell>
        <mxCell id="vXIsHff3W-B7BgybX8nb-185" style="edgeStyle=none;html=1;labelBackgroundColor=none;startFill=0;endArrow=none;endFill=0;strokeWidth=2;fontFamily=Verdana;fontSize=12;exitX=0.961;exitY=0.686;exitDx=0;exitDy=0;exitPerimeter=0;" parent="1" source="vXIsHff3W-B7BgybX8nb-184" target="vXIsHff3W-B7BgybX8nb-183" edge="1">
          <mxGeometry relative="1" as="geometry">
            <mxPoint x="-62.01120429951061" y="1326.913402053671" as="sourcePoint" />
            <mxPoint x="-34.14359252112399" y="1381.8581165475387" as="targetPoint" />
          </mxGeometry>
        </mxCell>
        <mxCell id="vXIsHff3W-B7BgybX8nb-186" value="&lt;b style=&quot;&quot;&gt;&lt;font style=&quot;color: rgb(255, 255, 255); font-size: 25px;&quot;&gt;&amp;nbsp;VPN-LOJ7-01-S&lt;/font&gt;&lt;/b&gt;" style="html=1;strokeWidth=1;shadow=0;dashed=0;shape=mxgraph.ios7.misc.vpn;fillColor=#007AFF;strokeColor=none;buttonText=;strokeColor2=#222222;fontColor=#222222;fontSize=8;verticalLabelPosition=bottom;verticalAlign=top;align=center;sketch=0;flipH=0;" parent="1" vertex="1">
          <mxGeometry x="-540.0689373130144" y="1475.2641311871134" width="86.38959651299751" height="63.73586881288648" as="geometry" />
        </mxCell>
        <mxCell id="vXIsHff3W-B7BgybX8nb-187" style="edgeStyle=none;html=1;labelBackgroundColor=none;startFill=0;endArrow=none;endFill=0;strokeWidth=2;fontFamily=Verdana;fontSize=12;exitX=1.026;exitY=0.412;exitDx=0;exitDy=0;exitPerimeter=0;" parent="1" source="vXIsHff3W-B7BgybX8nb-186" target="vXIsHff3W-B7BgybX8nb-183" edge="1">
          <mxGeometry relative="1" as="geometry">
            <mxPoint x="-78.73177136653749" y="1451.088456809811" as="sourcePoint" />
            <mxPoint x="-21.268755879505534" y="1535.7033171303679" as="targetPoint" />
          </mxGeometry>
        </mxCell>
        <mxCell id="vXIsHff3W-B7BgybX8nb-188" style="edgeStyle=none;html=1;labelBackgroundColor=none;startFill=0;endArrow=none;endFill=0;strokeWidth=2;fontFamily=Verdana;fontSize=12;entryX=1;entryY=0;entryDx=0;entryDy=0;entryPerimeter=0;exitX=0.55;exitY=0.95;exitDx=0;exitDy=0;exitPerimeter=0;" parent="1" source="vXIsHff3W-B7BgybX8nb-180" target="vXIsHff3W-B7BgybX8nb-183" edge="1">
          <mxGeometry relative="1" as="geometry">
            <mxPoint x="-59.71491308896975" y="1298.34215051686" as="sourcePoint" />
            <mxPoint x="-201.8397331587389" y="1381.8581165475387" as="targetPoint" />
          </mxGeometry>
        </mxCell>
        <mxCell id="vXIsHff3W-B7BgybX8nb-1" value="&lt;font style=&quot;font-size: 50px; color: rgb(255, 255, 255);&quot;&gt;Fortinet&amp;nbsp;&lt;br&gt;Matriz&lt;/font&gt;" style="shape=mxgraph.cisco.security.firewall;sketch=0;html=1;pointerEvents=1;dashed=0;fillColor=#036897;strokeColor=#ffffff;strokeWidth=2;verticalLabelPosition=bottom;verticalAlign=top;align=center;outlineConnect=0;" parent="1" vertex="1">
          <mxGeometry x="-1757" y="856.92" width="205" height="359.08" as="geometry" />
        </mxCell>
        <mxCell id="vXIsHff3W-B7BgybX8nb-4" style="edgeStyle=none;html=1;labelBackgroundColor=none;startFill=0;endArrow=none;endFill=0;strokeWidth=2;fontFamily=Verdana;fontSize=12;exitX=0.55;exitY=0.95;exitDx=0;exitDy=0;exitPerimeter=0;entryX=0.25;entryY=0.09;entryDx=0;entryDy=0;entryPerimeter=0;" parent="1" source="vXIsHff3W-B7BgybX8nb-215" target="vXIsHff3W-B7BgybX8nb-1" edge="1">
          <mxGeometry relative="1" as="geometry">
            <mxPoint x="-1695.945443971666" y="777.8999610977575" as="sourcePoint" />
            <mxPoint x="-1951.7081510832259" y="1057.7463066361217" as="targetPoint" />
          </mxGeometry>
        </mxCell>
        <mxCell id="1c7a67bf8fd3230f-50" style="edgeStyle=none;html=1;labelBackgroundColor=none;startFill=0;endArrow=none;endFill=0;strokeWidth=2;fontFamily=Verdana;fontSize=12;entryX=0.55;entryY=0.95;entryDx=0;entryDy=0;entryPerimeter=0;exitX=0.5;exitY=0;exitDx=0;exitDy=0;exitPerimeter=0;" parent="1" source="vXIsHff3W-B7BgybX8nb-1" target="vXIsHff3W-B7BgybX8nb-216" edge="1">
          <mxGeometry relative="1" as="geometry">
            <mxPoint x="-1562.9234728743297" y="785.6869898431715" as="sourcePoint" />
            <mxPoint x="-1386.597146445527" y="991.9001076859179" as="targetPoint" />
          </mxGeometry>
        </mxCell>
        <mxCell id="vXIsHff3W-B7BgybX8nb-249" style="edgeStyle=none;html=1;labelBackgroundColor=none;startFill=0;endArrow=none;endFill=0;strokeWidth=2;fontFamily=Verdana;fontSize=12;exitX=0.932;exitY=0.192;exitDx=0;exitDy=0;exitPerimeter=0;entryX=0;entryY=0.5;entryDx=0;entryDy=0;entryPerimeter=0;" parent="1" source="vXIsHff3W-B7BgybX8nb-63" target="vXIsHff3W-B7BgybX8nb-1" edge="1">
          <mxGeometry relative="1" as="geometry">
            <mxPoint x="-2225.3865790218515" y="771.189155107188" as="sourcePoint" />
            <mxPoint x="-2047.8147968494643" y="1002.1097099621694" as="targetPoint" />
            <Array as="points">
              <mxPoint x="-2349.6868265425223" y="295.8776796973519" />
            </Array>
          </mxGeometry>
        </mxCell>
        <mxCell id="vXIsHff3W-B7BgybX8nb-253" style="edgeStyle=none;html=1;labelBackgroundColor=none;startFill=0;endArrow=none;endFill=0;strokeWidth=2;fontFamily=Verdana;fontSize=12;exitX=1.014;exitY=0.392;exitDx=0;exitDy=0;exitPerimeter=0;entryX=0;entryY=0.5;entryDx=0;entryDy=0;entryPerimeter=0;" parent="1" source="vXIsHff3W-B7BgybX8nb-67" target="vXIsHff3W-B7BgybX8nb-1" edge="1">
          <mxGeometry relative="1" as="geometry">
            <mxPoint x="-2727.4304358910545" y="230.4501891551072" as="sourcePoint" />
            <mxPoint x="-1707.1998328642494" y="1057.9155107187894" as="targetPoint" />
            <Array as="points">
              <mxPoint x="-2354.529693329042" y="447.9003783102144" />
            </Array>
          </mxGeometry>
        </mxCell>
        <mxCell id="vXIsHff3W-B7BgybX8nb-254" style="edgeStyle=none;html=1;labelBackgroundColor=none;startFill=0;endArrow=none;endFill=0;strokeWidth=2;fontFamily=Verdana;fontSize=12;exitX=0.983;exitY=0.258;exitDx=0;exitDy=0;exitPerimeter=0;entryX=0;entryY=0.5;entryDx=0;entryDy=0;entryPerimeter=0;" parent="1" source="vXIsHff3W-B7BgybX8nb-86" target="vXIsHff3W-B7BgybX8nb-1" edge="1">
          <mxGeometry relative="1" as="geometry">
            <mxPoint x="-2711.2875466026558" y="249.69356872635566" as="sourcePoint" />
            <mxPoint x="-1691.0569435758503" y="1077.1588902900382" as="targetPoint" />
            <Array as="points">
              <mxPoint x="-2351.301115471362" y="640.3341740226987" />
            </Array>
          </mxGeometry>
        </mxCell>
        <mxCell id="vXIsHff3W-B7BgybX8nb-255" style="edgeStyle=none;html=1;labelBackgroundColor=none;startFill=0;endArrow=none;endFill=0;strokeWidth=2;fontFamily=Verdana;fontSize=12;exitX=1.014;exitY=0.424;exitDx=0;exitDy=0;exitPerimeter=0;entryX=0;entryY=0.5;entryDx=0;entryDy=0;entryPerimeter=0;" parent="1" source="vXIsHff3W-B7BgybX8nb-88" target="vXIsHff3W-B7BgybX8nb-1" edge="1">
          <mxGeometry relative="1" as="geometry">
            <mxPoint x="-2695.144657314257" y="268.9369482976041" as="sourcePoint" />
            <mxPoint x="-1674.914054287451" y="1096.4022698612864" as="targetPoint" />
            <Array as="points">
              <mxPoint x="-2349.6868265425223" y="790.4325346784366" />
            </Array>
          </mxGeometry>
        </mxCell>
        <mxCell id="vXIsHff3W-B7BgybX8nb-256" style="edgeStyle=none;html=1;labelBackgroundColor=none;startFill=0;endArrow=none;endFill=0;strokeWidth=2;fontFamily=Verdana;fontSize=12;exitX=0.929;exitY=0.204;exitDx=0;exitDy=0;exitPerimeter=0;entryX=0;entryY=0.5;entryDx=0;entryDy=0;entryPerimeter=0;" parent="1" source="vXIsHff3W-B7BgybX8nb-97" target="vXIsHff3W-B7BgybX8nb-1" edge="1">
          <mxGeometry relative="1" as="geometry">
            <mxPoint x="-2679.0017680258584" y="288.18032786885254" as="sourcePoint" />
            <mxPoint x="-1658.7711649990526" y="1115.6456494325353" as="targetPoint" />
            <Array as="points">
              <mxPoint x="-2351.301115471362" y="957.8499369482976" />
            </Array>
          </mxGeometry>
        </mxCell>
        <mxCell id="vXIsHff3W-B7BgybX8nb-257" style="edgeStyle=none;html=1;labelBackgroundColor=none;startFill=0;endArrow=none;endFill=0;strokeWidth=2;fontFamily=Verdana;fontSize=12;exitX=0.96;exitY=0.242;exitDx=0;exitDy=0;exitPerimeter=0;entryX=0;entryY=0.5;entryDx=0;entryDy=0;entryPerimeter=0;" parent="1" source="vXIsHff3W-B7BgybX8nb-99" target="vXIsHff3W-B7BgybX8nb-1" edge="1">
          <mxGeometry relative="1" as="geometry">
            <mxPoint x="-2662.8588787374592" y="307.42370744010094" as="sourcePoint" />
            <mxPoint x="-1642.6282757106535" y="1134.8890290037832" as="targetPoint" />
            <Array as="points">
              <mxPoint x="-2349.6868265425223" y="1109.8726355611605" />
            </Array>
          </mxGeometry>
        </mxCell>
        <mxCell id="vXIsHff3W-B7BgybX8nb-258" style="edgeStyle=none;html=1;labelBackgroundColor=none;startFill=0;endArrow=none;endFill=0;strokeWidth=2;fontFamily=Verdana;fontSize=12;exitX=0.929;exitY=0.106;exitDx=0;exitDy=0;exitPerimeter=0;entryX=0;entryY=0.5;entryDx=0;entryDy=0;entryPerimeter=0;" parent="1" source="vXIsHff3W-B7BgybX8nb-109" target="vXIsHff3W-B7BgybX8nb-1" edge="1">
          <mxGeometry relative="1" as="geometry">
            <mxPoint x="-2646.7159894490605" y="326.66708701134934" as="sourcePoint" />
            <mxPoint x="-1626.4853864222553" y="1154.1324085750316" as="targetPoint" />
            <Array as="points">
              <mxPoint x="-2346.458248684842" y="1244.5762925598995" />
            </Array>
          </mxGeometry>
        </mxCell>
        <mxCell id="vXIsHff3W-B7BgybX8nb-259" style="edgeStyle=none;html=1;labelBackgroundColor=none;startFill=0;endArrow=none;endFill=0;strokeWidth=2;fontFamily=Verdana;fontSize=12;exitX=0.933;exitY=0.486;exitDx=0;exitDy=0;exitPerimeter=0;entryX=0;entryY=0.5;entryDx=0;entryDy=0;entryPerimeter=0;" parent="1" source="vXIsHff3W-B7BgybX8nb-111" target="vXIsHff3W-B7BgybX8nb-1" edge="1">
          <mxGeometry relative="1" as="geometry">
            <mxPoint x="-2630.573100160662" y="345.91046658259773" as="sourcePoint" />
            <mxPoint x="-1610.342497133856" y="1173.3757881462805" as="targetPoint" />
            <Array as="points">
              <mxPoint x="-2346.458248684842" y="1506.286254728878" />
            </Array>
          </mxGeometry>
        </mxCell>
        <mxCell id="vXIsHff3W-B7BgybX8nb-262" style="edgeStyle=none;html=1;labelBackgroundColor=none;startFill=0;endArrow=none;endFill=0;strokeWidth=2;fontFamily=Verdana;fontSize=12;exitX=0.095;exitY=0.226;exitDx=0;exitDy=0;exitPerimeter=0;entryX=1;entryY=0.5;entryDx=0;entryDy=0;entryPerimeter=0;" parent="1" source="vXIsHff3W-B7BgybX8nb-123" target="vXIsHff3W-B7BgybX8nb-1" edge="1">
          <mxGeometry relative="1" as="geometry">
            <mxPoint x="-488.4116915901386" y="188.11475409836066" as="sourcePoint" />
            <mxPoint x="-1508.6422946169437" y="1015.5800756620432" as="targetPoint" />
            <Array as="points">
              <mxPoint x="-882.2981902270703" y="272.78562421185376" />
            </Array>
          </mxGeometry>
        </mxCell>
        <mxCell id="vXIsHff3W-B7BgybX8nb-263" style="edgeStyle=none;html=1;labelBackgroundColor=none;startFill=0;endArrow=none;endFill=0;strokeWidth=2;fontFamily=Verdana;fontSize=12;exitX=0.058;exitY=0.296;exitDx=0;exitDy=0;exitPerimeter=0;entryX=1;entryY=0.5;entryDx=0;entryDy=0;entryPerimeter=0;" parent="1" source="vXIsHff3W-B7BgybX8nb-125" target="vXIsHff3W-B7BgybX8nb-1" edge="1">
          <mxGeometry relative="1" as="geometry">
            <mxPoint x="-496.4831362343384" y="191.96343001261036" as="sourcePoint" />
            <mxPoint x="-1558.68525141098" y="1057.9155107187894" as="targetPoint" />
            <Array as="points">
              <mxPoint x="-885.5267680847496" y="494.08448928121084" />
            </Array>
          </mxGeometry>
        </mxCell>
        <mxCell id="vXIsHff3W-B7BgybX8nb-265" style="edgeStyle=none;html=1;labelBackgroundColor=none;startFill=0;endArrow=none;endFill=0;strokeWidth=2;fontFamily=Verdana;fontSize=12;exitX=0.041;exitY=0.22;exitDx=0;exitDy=0;exitPerimeter=0;entryX=1;entryY=0.5;entryDx=0;entryDy=0;entryPerimeter=0;" parent="1" source="vXIsHff3W-B7BgybX8nb-164" target="vXIsHff3W-B7BgybX8nb-1" edge="1">
          <mxGeometry relative="1" as="geometry">
            <mxPoint x="-499.71171409201725" y="330.5157629255991" as="sourcePoint" />
            <mxPoint x="-1558.68525141098" y="1057.9155107187894" as="targetPoint" />
            <Array as="points">
              <mxPoint x="-887.1410570135881" y="690.3669609079446" />
            </Array>
          </mxGeometry>
        </mxCell>
        <mxCell id="vXIsHff3W-B7BgybX8nb-266" style="edgeStyle=none;html=1;labelBackgroundColor=none;startFill=0;endArrow=none;endFill=0;strokeWidth=2;fontFamily=Verdana;fontSize=12;exitX=0.019;exitY=0.244;exitDx=0;exitDy=0;exitPerimeter=0;entryX=1;entryY=0.5;entryDx=0;entryDy=0;entryPerimeter=0;" parent="1" source="vXIsHff3W-B7BgybX8nb-166" target="vXIsHff3W-B7BgybX8nb-1" edge="1">
          <mxGeometry relative="1" as="geometry">
            <mxPoint x="-483.56882480361946" y="349.75914249684746" as="sourcePoint" />
            <mxPoint x="-1542.5423621225814" y="1077.1588902900382" as="targetPoint" />
            <Array as="points">
              <mxPoint x="-888.7553459424289" y="778.8865069356874" />
            </Array>
          </mxGeometry>
        </mxCell>
        <mxCell id="vXIsHff3W-B7BgybX8nb-267" style="edgeStyle=none;html=1;labelBackgroundColor=none;startFill=0;endArrow=none;endFill=0;strokeWidth=2;fontFamily=Verdana;fontSize=12;exitX=0.046;exitY=0.221;exitDx=0;exitDy=0;exitPerimeter=0;entryX=1;entryY=0.5;entryDx=0;entryDy=0;entryPerimeter=0;" parent="1" source="vXIsHff3W-B7BgybX8nb-174" target="vXIsHff3W-B7BgybX8nb-1" edge="1">
          <mxGeometry relative="1" as="geometry">
            <mxPoint x="-467.42593551521986" y="369.00252206809586" as="sourcePoint" />
            <mxPoint x="-1526.3994728341825" y="1096.4022698612864" as="targetPoint" />
            <Array as="points">
              <mxPoint x="-891.9839238001091" y="934.7578814627994" />
            </Array>
          </mxGeometry>
        </mxCell>
        <mxCell id="vXIsHff3W-B7BgybX8nb-268" style="edgeStyle=none;html=1;labelBackgroundColor=none;startFill=0;endArrow=none;endFill=0;strokeWidth=2;fontFamily=Verdana;fontSize=12;exitX=0.002;exitY=0.198;exitDx=0;exitDy=0;exitPerimeter=0;entryX=1;entryY=0.5;entryDx=0;entryDy=0;entryPerimeter=0;" parent="1" source="vXIsHff3W-B7BgybX8nb-176" target="vXIsHff3W-B7BgybX8nb-1" edge="1">
          <mxGeometry relative="1" as="geometry">
            <mxPoint x="-451.28304622682026" y="388.2459016393443" as="sourcePoint" />
            <mxPoint x="-1510.2565835457842" y="1115.6456494325353" as="targetPoint" />
            <Array as="points">
              <mxPoint x="-888.7553459424289" y="1096.4022698612864" />
            </Array>
          </mxGeometry>
        </mxCell>
        <mxCell id="vXIsHff3W-B7BgybX8nb-269" style="edgeStyle=none;html=1;labelBackgroundColor=none;startFill=0;endArrow=none;endFill=0;strokeWidth=2;fontFamily=Verdana;fontSize=12;exitX=0.005;exitY=0.276;exitDx=0;exitDy=0;exitPerimeter=0;entryX=1;entryY=0.5;entryDx=0;entryDy=0;entryPerimeter=0;" parent="1" source="vXIsHff3W-B7BgybX8nb-184" target="vXIsHff3W-B7BgybX8nb-1" edge="1">
          <mxGeometry relative="1" as="geometry">
            <mxPoint x="-435.1401569384225" y="407.48928121059276" as="sourcePoint" />
            <mxPoint x="-1494.113694257385" y="1134.8890290037832" as="targetPoint" />
            <Array as="points">
              <mxPoint x="-887.1410570135881" y="1281.1387137452718" />
            </Array>
          </mxGeometry>
        </mxCell>
        <mxCell id="vXIsHff3W-B7BgybX8nb-270" style="edgeStyle=none;html=1;labelBackgroundColor=none;startFill=0;endArrow=none;endFill=0;strokeWidth=2;fontFamily=Verdana;fontSize=12;exitX=-0.093;exitY=0.155;exitDx=0;exitDy=0;exitPerimeter=0;entryX=1;entryY=0.5;entryDx=0;entryDy=0;entryPerimeter=0;" parent="1" source="vXIsHff3W-B7BgybX8nb-186" target="vXIsHff3W-B7BgybX8nb-1" edge="1">
          <mxGeometry relative="1" as="geometry">
            <mxPoint x="-418.9972676500229" y="426.73266078184116" as="sourcePoint" />
            <mxPoint x="-1477.9708049689864" y="1154.1324085750316" as="targetPoint" />
            <Array as="points">
              <mxPoint x="-887.1410570135881" y="1506.286254728878" />
            </Array>
          </mxGeometry>
        </mxCell>
        <mxCell id="vXIsHff3W-B7BgybX8nb-58" value="&lt;font style=&quot;font-size: 20px;&quot;&gt;&lt;b&gt;WAN 1&lt;/b&gt;&lt;/font&gt;" style="ellipse;shape=cloud;whiteSpace=wrap;html=1;rounded=0;shadow=0;comic=0;strokeWidth=1;fontFamily=Verdana;fontSize=12;" parent="1" vertex="1">
          <mxGeometry x="-3142.0933824937456" y="52.617307692307705" width="167.3513839783023" height="113.02451631959832" as="geometry" />
        </mxCell>
        <mxCell id="vXIsHff3W-B7BgybX8nb-59" value="&lt;font face=&quot;Comic Sans MS&quot; style=&quot;font-size: 20px;&quot;&gt;&lt;b&gt;WAN 2&lt;/b&gt;&lt;/font&gt;" style="ellipse;shape=cloud;whiteSpace=wrap;html=1;rounded=0;shadow=0;comic=0;strokeWidth=1;fontFamily=Verdana;fontSize=12;" parent="1" vertex="1">
          <mxGeometry x="-2952.794276026486" y="52.617307692307705" width="167.3513839783023" height="113.02451631959832" as="geometry" />
        </mxCell>
        <mxCell id="vXIsHff3W-B7BgybX8nb-60" style="edgeStyle=none;html=1;labelBackgroundColor=none;startFill=0;endArrow=none;endFill=0;strokeWidth=2;fontFamily=Verdana;fontSize=12;entryX=1;entryY=0;entryDx=0;entryDy=0;entryPerimeter=0;exitX=0.31;exitY=0.8;exitDx=0;exitDy=0;exitPerimeter=0;" parent="1" source="vXIsHff3W-B7BgybX8nb-59" target="vXIsHff3W-B7BgybX8nb-61" edge="1">
          <mxGeometry relative="1" as="geometry">
            <mxPoint x="-1471.3230080218423" y="207.74899675842303" as="sourcePoint" />
            <mxPoint x="-1024.1381623093298" y="771.6562609766335" as="targetPoint" />
          </mxGeometry>
        </mxCell>
        <mxCell id="vXIsHff3W-B7BgybX8nb-61" value="&lt;b&gt;&lt;font style=&quot;color: rgb(255, 255, 255); font-size: 35px;&quot;&gt;Fortinet&amp;nbsp;&lt;br&gt;CISS&lt;/font&gt;&lt;/b&gt;" style="shape=mxgraph.cisco.security.firewall;sketch=0;html=1;pointerEvents=1;dashed=0;fillColor=#036897;strokeColor=#ffffff;strokeWidth=2;verticalLabelPosition=bottom;verticalAlign=top;align=center;outlineConnect=0;rotation=0;" parent="1" vertex="1">
          <mxGeometry x="-3076.2502150268724" y="198.88432881178787" width="146.77539414490448" height="150.6993550927978" as="geometry" />
        </mxCell>
        <mxCell id="vXIsHff3W-B7BgybX8nb-62" style="edgeStyle=none;html=1;labelBackgroundColor=none;startFill=0;endArrow=none;endFill=0;strokeWidth=2;fontFamily=Verdana;fontSize=12;exitX=0.55;exitY=0.95;exitDx=0;exitDy=0;exitPerimeter=0;entryX=0.25;entryY=0.09;entryDx=0;entryDy=0;entryPerimeter=0;" parent="1" source="vXIsHff3W-B7BgybX8nb-58" target="vXIsHff3W-B7BgybX8nb-61" edge="1">
          <mxGeometry relative="1" as="geometry">
            <mxPoint x="-2881.4641779373733" y="174.50649195854118" as="sourcePoint" />
            <mxPoint x="-2900.6684351152117" y="221.04599867837572" as="targetPoint" />
          </mxGeometry>
        </mxCell>
        <mxCell id="vXIsHff3W-B7BgybX8nb-63" value="&lt;font style=&quot;color: rgb(255, 255, 255); font-size: 25px;&quot;&gt;&lt;b style=&quot;&quot;&gt;VPN-CISS-P-01&lt;/b&gt;&lt;/font&gt;" style="html=1;strokeWidth=1;shadow=0;dashed=0;shape=mxgraph.ios7.misc.vpn;fillColor=#007AFF;strokeColor=none;buttonText=;strokeColor2=#222222;fontColor=#222222;fontSize=8;verticalLabelPosition=bottom;verticalAlign=top;align=center;sketch=0;" parent="1" vertex="1">
          <mxGeometry x="-2822.8088895856336" y="198.88432881178787" width="85.047424644711" height="64.26884261310494" as="geometry" />
        </mxCell>
        <mxCell id="vXIsHff3W-B7BgybX8nb-64" style="edgeStyle=none;html=1;labelBackgroundColor=none;startFill=0;endArrow=none;endFill=0;strokeWidth=2;fontFamily=Verdana;fontSize=12;exitX=0.066;exitY=0.493;exitDx=0;exitDy=0;exitPerimeter=0;" parent="1" source="vXIsHff3W-B7BgybX8nb-63" target="vXIsHff3W-B7BgybX8nb-61" edge="1">
          <mxGeometry relative="1" as="geometry">
            <mxPoint x="-2873.2337820040143" y="165.641824011906" as="sourcePoint" />
            <mxPoint x="-2900.6684351152117" y="221.04599867837572" as="targetPoint" />
          </mxGeometry>
        </mxCell>
        <mxCell id="vXIsHff3W-B7BgybX8nb-67" value="&lt;font style=&quot;color: rgb(255, 255, 255); font-size: 25px;&quot;&gt;&lt;b style=&quot;&quot;&gt;VPN-CISS-P-01&lt;/b&gt;&lt;/font&gt;" style="html=1;strokeWidth=1;shadow=0;dashed=0;shape=mxgraph.ios7.misc.vpn;fillColor=#007AFF;strokeColor=none;buttonText=;strokeColor2=#222222;fontColor=#222222;fontSize=8;verticalLabelPosition=bottom;verticalAlign=top;align=center;sketch=0;" parent="1" vertex="1">
          <mxGeometry x="-2839.269681452352" y="317.44926259803316" width="85.047424644711" height="64.26884261310494" as="geometry" />
        </mxCell>
        <mxCell id="vXIsHff3W-B7BgybX8nb-68" style="edgeStyle=none;html=1;labelBackgroundColor=none;startFill=0;endArrow=none;endFill=0;strokeWidth=2;fontFamily=Verdana;fontSize=12;exitX=0.066;exitY=0.493;exitDx=0;exitDy=0;exitPerimeter=0;" parent="1" source="vXIsHff3W-B7BgybX8nb-67" target="vXIsHff3W-B7BgybX8nb-61" edge="1">
          <mxGeometry relative="1" as="geometry">
            <mxPoint x="-2873.2337820040143" y="290.85525875812766" as="sourcePoint" />
            <mxPoint x="-2929.804036719302" y="376.1776877444912" as="targetPoint" />
          </mxGeometry>
        </mxCell>
        <mxCell id="vXIsHff3W-B7BgybX8nb-81" value="&lt;font face=&quot;Comic Sans MS&quot; style=&quot;font-size: 20px;&quot;&gt;&lt;b style=&quot;&quot;&gt;WAN 1&lt;/b&gt;&lt;/font&gt;" style="ellipse;shape=cloud;whiteSpace=wrap;html=1;rounded=0;shadow=0;comic=0;strokeWidth=1;fontFamily=Verdana;fontSize=12;" parent="1" vertex="1">
          <mxGeometry x="-3142.082924458545" y="432.6748205646063" width="167.3513839783023" height="113.02451631959832" as="geometry" />
        </mxCell>
        <mxCell id="vXIsHff3W-B7BgybX8nb-82" value="&lt;font face=&quot;Comic Sans MS&quot; style=&quot;font-size: 20px;&quot;&gt;&lt;b&gt;WAN 2&lt;/b&gt;&lt;/font&gt;" style="ellipse;shape=cloud;whiteSpace=wrap;html=1;rounded=0;shadow=0;comic=0;strokeWidth=1;fontFamily=Verdana;fontSize=12;" parent="1" vertex="1">
          <mxGeometry x="-2952.7838179912856" y="432.6748205646063" width="167.3513839783023" height="113.02451631959832" as="geometry" />
        </mxCell>
        <mxCell id="vXIsHff3W-B7BgybX8nb-83" style="edgeStyle=none;html=1;labelBackgroundColor=none;startFill=0;endArrow=none;endFill=0;strokeWidth=2;fontFamily=Verdana;fontSize=12;entryX=1;entryY=0;entryDx=0;entryDy=0;entryPerimeter=0;exitX=0.31;exitY=0.8;exitDx=0;exitDy=0;exitPerimeter=0;" parent="1" source="vXIsHff3W-B7BgybX8nb-82" target="vXIsHff3W-B7BgybX8nb-84" edge="1">
          <mxGeometry relative="1" as="geometry">
            <mxPoint x="-1471.3125499866428" y="587.8065096307215" as="sourcePoint" />
            <mxPoint x="-1024.127704274129" y="1151.7137738489323" as="targetPoint" />
          </mxGeometry>
        </mxCell>
        <mxCell id="vXIsHff3W-B7BgybX8nb-84" value="&lt;b&gt;&lt;font style=&quot;color: rgb(255, 255, 255); font-size: 35px;&quot;&gt;Fortinet&amp;nbsp;&lt;br&gt;Loja1&lt;/font&gt;&lt;/b&gt;" style="shape=mxgraph.cisco.security.firewall;sketch=0;html=1;pointerEvents=1;dashed=0;fillColor=#036897;strokeColor=#ffffff;strokeWidth=2;verticalLabelPosition=bottom;verticalAlign=top;align=center;outlineConnect=0;rotation=0;" parent="1" vertex="1">
          <mxGeometry x="-3076.2397569916725" y="578.9418416840866" width="146.77539414490448" height="150.6993550927978" as="geometry" />
        </mxCell>
        <mxCell id="vXIsHff3W-B7BgybX8nb-85" style="edgeStyle=none;html=1;labelBackgroundColor=none;startFill=0;endArrow=none;endFill=0;strokeWidth=2;fontFamily=Verdana;fontSize=12;exitX=0.55;exitY=0.95;exitDx=0;exitDy=0;exitPerimeter=0;entryX=0.25;entryY=0.09;entryDx=0;entryDy=0;entryPerimeter=0;" parent="1" source="vXIsHff3W-B7BgybX8nb-81" target="vXIsHff3W-B7BgybX8nb-84" edge="1">
          <mxGeometry relative="1" as="geometry">
            <mxPoint x="-2881.4537199021734" y="554.5640048308401" as="sourcePoint" />
            <mxPoint x="-2900.657977080011" y="601.1035115506745" as="targetPoint" />
          </mxGeometry>
        </mxCell>
        <mxCell id="vXIsHff3W-B7BgybX8nb-86" value="&lt;b style=&quot;&quot;&gt;&lt;font style=&quot;color: rgb(255, 255, 255); font-size: 25px;&quot;&gt;&amp;nbsp;VPN-LOJ1-01-P&lt;/font&gt;&lt;/b&gt;" style="html=1;strokeWidth=1;shadow=0;dashed=0;shape=mxgraph.ios7.misc.vpn;fillColor=#007AFF;strokeColor=none;buttonText=;strokeColor2=#222222;fontColor=#222222;fontSize=8;verticalLabelPosition=bottom;verticalAlign=top;align=center;sketch=0;" parent="1" vertex="1">
          <mxGeometry x="-2822.7984315504336" y="578.9418416840866" width="85.047424644711" height="64.26884261310494" as="geometry" />
        </mxCell>
        <mxCell id="vXIsHff3W-B7BgybX8nb-87" style="edgeStyle=none;html=1;labelBackgroundColor=none;startFill=0;endArrow=none;endFill=0;strokeWidth=2;fontFamily=Verdana;fontSize=12;exitX=0.066;exitY=0.493;exitDx=0;exitDy=0;exitPerimeter=0;" parent="1" source="vXIsHff3W-B7BgybX8nb-86" target="vXIsHff3W-B7BgybX8nb-84" edge="1">
          <mxGeometry relative="1" as="geometry">
            <mxPoint x="-2873.223323968814" y="545.6993368842046" as="sourcePoint" />
            <mxPoint x="-2900.657977080011" y="601.1035115506745" as="targetPoint" />
          </mxGeometry>
        </mxCell>
        <mxCell id="vXIsHff3W-B7BgybX8nb-88" value="&lt;b style=&quot;&quot;&gt;&lt;font style=&quot;color: rgb(255, 255, 255); font-size: 25px;&quot;&gt;&amp;nbsp;VPN-LOJ1-01-S&lt;/font&gt;&lt;/b&gt;" style="html=1;strokeWidth=1;shadow=0;dashed=0;shape=mxgraph.ios7.misc.vpn;fillColor=#007AFF;strokeColor=none;buttonText=;strokeColor2=#222222;fontColor=#222222;fontSize=8;verticalLabelPosition=bottom;verticalAlign=top;align=center;sketch=0;" parent="1" vertex="1">
          <mxGeometry x="-2839.259223417152" y="697.5067754703321" width="85.047424644711" height="64.26884261310494" as="geometry" />
        </mxCell>
        <mxCell id="vXIsHff3W-B7BgybX8nb-89" style="edgeStyle=none;html=1;labelBackgroundColor=none;startFill=0;endArrow=none;endFill=0;strokeWidth=2;fontFamily=Verdana;fontSize=12;exitX=0.066;exitY=0.493;exitDx=0;exitDy=0;exitPerimeter=0;" parent="1" source="vXIsHff3W-B7BgybX8nb-88" target="vXIsHff3W-B7BgybX8nb-84" edge="1">
          <mxGeometry relative="1" as="geometry">
            <mxPoint x="-2873.223323968814" y="670.9127716304264" as="sourcePoint" />
            <mxPoint x="-2929.7935786841026" y="756.2352006167897" as="targetPoint" />
          </mxGeometry>
        </mxCell>
        <mxCell id="vXIsHff3W-B7BgybX8nb-92" value="&lt;font face=&quot;Comic Sans MS&quot; style=&quot;font-size: 20px;&quot;&gt;&lt;b&gt;WAN 1&lt;/b&gt;&lt;/font&gt;" style="ellipse;shape=cloud;whiteSpace=wrap;html=1;rounded=0;shadow=0;comic=0;strokeWidth=1;fontFamily=Verdana;fontSize=12;" parent="1" vertex="1">
          <mxGeometry x="-3149" y="812.744134526109" width="167.3513839783023" height="113.02451631959832" as="geometry" />
        </mxCell>
        <mxCell id="vXIsHff3W-B7BgybX8nb-93" value="&lt;font face=&quot;Comic Sans MS&quot; style=&quot;font-size: 20px;&quot;&gt;&lt;b&gt;WAN 2&lt;/b&gt;&lt;/font&gt;" style="ellipse;shape=cloud;whiteSpace=wrap;html=1;rounded=0;shadow=0;comic=0;strokeWidth=1;fontFamily=Verdana;fontSize=12;" parent="1" vertex="1">
          <mxGeometry x="-2959.7008935327403" y="812.744134526109" width="167.3513839783023" height="113.02451631959832" as="geometry" />
        </mxCell>
        <mxCell id="vXIsHff3W-B7BgybX8nb-94" style="edgeStyle=none;html=1;labelBackgroundColor=none;startFill=0;endArrow=none;endFill=0;strokeWidth=2;fontFamily=Verdana;fontSize=12;entryX=1;entryY=0;entryDx=0;entryDy=0;entryPerimeter=0;exitX=0.31;exitY=0.8;exitDx=0;exitDy=0;exitPerimeter=0;" parent="1" source="vXIsHff3W-B7BgybX8nb-93" target="vXIsHff3W-B7BgybX8nb-95" edge="1">
          <mxGeometry relative="1" as="geometry">
            <mxPoint x="-1478.2296255280974" y="967.8758235922243" as="sourcePoint" />
            <mxPoint x="-1031.0447798155842" y="1531.7830878104346" as="targetPoint" />
          </mxGeometry>
        </mxCell>
        <mxCell id="vXIsHff3W-B7BgybX8nb-95" value="&lt;b&gt;&lt;font style=&quot;color: rgb(255, 255, 255); font-size: 35px;&quot;&gt;Fortinet&amp;nbsp;&lt;br&gt;Loja2&lt;/font&gt;&lt;/b&gt;" style="shape=mxgraph.cisco.security.firewall;sketch=0;html=1;pointerEvents=1;dashed=0;fillColor=#036897;strokeColor=#ffffff;strokeWidth=2;verticalLabelPosition=bottom;verticalAlign=top;align=center;outlineConnect=0;rotation=0;" parent="1" vertex="1">
          <mxGeometry x="-3083.156832533127" y="959.0111556455889" width="146.77539414490448" height="150.6993550927978" as="geometry" />
        </mxCell>
        <mxCell id="vXIsHff3W-B7BgybX8nb-96" style="edgeStyle=none;html=1;labelBackgroundColor=none;startFill=0;endArrow=none;endFill=0;strokeWidth=2;fontFamily=Verdana;fontSize=12;exitX=0.55;exitY=0.95;exitDx=0;exitDy=0;exitPerimeter=0;entryX=0.25;entryY=0.09;entryDx=0;entryDy=0;entryPerimeter=0;" parent="1" source="vXIsHff3W-B7BgybX8nb-92" target="vXIsHff3W-B7BgybX8nb-95" edge="1">
          <mxGeometry relative="1" as="geometry">
            <mxPoint x="-2888.3707954436277" y="934.6333187923423" as="sourcePoint" />
            <mxPoint x="-2907.5750526214656" y="981.1728255121769" as="targetPoint" />
          </mxGeometry>
        </mxCell>
        <mxCell id="vXIsHff3W-B7BgybX8nb-97" value="&lt;b style=&quot;&quot;&gt;&lt;font style=&quot;color: rgb(255, 255, 255); font-size: 25px;&quot;&gt;&amp;nbsp;VPN-LOJ2-01-P&lt;/font&gt;&lt;/b&gt;" style="html=1;strokeWidth=1;shadow=0;dashed=0;shape=mxgraph.ios7.misc.vpn;fillColor=#007AFF;strokeColor=none;buttonText=;strokeColor2=#222222;fontColor=#222222;fontSize=8;verticalLabelPosition=bottom;verticalAlign=top;align=center;sketch=0;" parent="1" vertex="1">
          <mxGeometry x="-2829.7155070918884" y="959.0111556455889" width="85.047424644711" height="64.26884261310494" as="geometry" />
        </mxCell>
        <mxCell id="vXIsHff3W-B7BgybX8nb-98" style="edgeStyle=none;html=1;labelBackgroundColor=none;startFill=0;endArrow=none;endFill=0;strokeWidth=2;fontFamily=Verdana;fontSize=12;exitX=0.066;exitY=0.493;exitDx=0;exitDy=0;exitPerimeter=0;" parent="1" source="vXIsHff3W-B7BgybX8nb-97" target="vXIsHff3W-B7BgybX8nb-95" edge="1">
          <mxGeometry relative="1" as="geometry">
            <mxPoint x="-2880.1403995102683" y="925.7686508457074" as="sourcePoint" />
            <mxPoint x="-2907.5750526214656" y="981.1728255121769" as="targetPoint" />
          </mxGeometry>
        </mxCell>
        <mxCell id="vXIsHff3W-B7BgybX8nb-99" value="&lt;b style=&quot;&quot;&gt;&lt;font style=&quot;color: rgb(255, 255, 255); font-size: 25px;&quot;&gt;&amp;nbsp;VPN-LOJ2-01-S&lt;/font&gt;&lt;/b&gt;" style="html=1;strokeWidth=1;shadow=0;dashed=0;shape=mxgraph.ios7.misc.vpn;fillColor=#007AFF;strokeColor=none;buttonText=;strokeColor2=#222222;fontColor=#222222;fontSize=8;verticalLabelPosition=bottom;verticalAlign=top;align=center;sketch=0;" parent="1" vertex="1">
          <mxGeometry x="-2846.1762989586064" y="1077.5760894318344" width="85.047424644711" height="64.26884261310494" as="geometry" />
        </mxCell>
        <mxCell id="vXIsHff3W-B7BgybX8nb-100" style="edgeStyle=none;html=1;labelBackgroundColor=none;startFill=0;endArrow=none;endFill=0;strokeWidth=2;fontFamily=Verdana;fontSize=12;exitX=0.066;exitY=0.493;exitDx=0;exitDy=0;exitPerimeter=0;" parent="1" source="vXIsHff3W-B7BgybX8nb-99" target="vXIsHff3W-B7BgybX8nb-95" edge="1">
          <mxGeometry relative="1" as="geometry">
            <mxPoint x="-2880.1403995102683" y="1050.9820855919288" as="sourcePoint" />
            <mxPoint x="-2936.710654225557" y="1136.3045145782924" as="targetPoint" />
          </mxGeometry>
        </mxCell>
        <mxCell id="vXIsHff3W-B7BgybX8nb-104" value="&lt;font face=&quot;Comic Sans MS&quot; style=&quot;font-size: 20px;&quot;&gt;&lt;b&gt;WAN 1&lt;/b&gt;&lt;/font&gt;" style="ellipse;shape=cloud;whiteSpace=wrap;html=1;rounded=0;shadow=0;comic=0;strokeWidth=1;fontFamily=Verdana;fontSize=12;" parent="1" vertex="1">
          <mxGeometry x="-3142.0879922008253" y="1209.4096027964285" width="167.3513839783023" height="113.02451631959832" as="geometry" />
        </mxCell>
        <mxCell id="vXIsHff3W-B7BgybX8nb-105" value="&lt;font face=&quot;Comic Sans MS&quot; style=&quot;font-size: 20px;&quot;&gt;&lt;b&gt;WAN 2&lt;/b&gt;&lt;/font&gt;" style="ellipse;shape=cloud;whiteSpace=wrap;html=1;rounded=0;shadow=0;comic=0;strokeWidth=1;fontFamily=Verdana;fontSize=12;" parent="1" vertex="1">
          <mxGeometry x="-2952.788885733565" y="1209.4096027964285" width="167.3513839783023" height="113.02451631959832" as="geometry" />
        </mxCell>
        <mxCell id="vXIsHff3W-B7BgybX8nb-106" style="edgeStyle=none;html=1;labelBackgroundColor=none;startFill=0;endArrow=none;endFill=0;strokeWidth=2;fontFamily=Verdana;fontSize=12;entryX=1;entryY=0;entryDx=0;entryDy=0;entryPerimeter=0;exitX=0.31;exitY=0.8;exitDx=0;exitDy=0;exitPerimeter=0;" parent="1" source="vXIsHff3W-B7BgybX8nb-105" target="vXIsHff3W-B7BgybX8nb-107" edge="1">
          <mxGeometry relative="1" as="geometry">
            <mxPoint x="-1471.3176177289224" y="1364.5412918625439" as="sourcePoint" />
            <mxPoint x="-1024.1327720164086" y="1928.4485560807543" as="targetPoint" />
          </mxGeometry>
        </mxCell>
        <mxCell id="vXIsHff3W-B7BgybX8nb-107" value="&lt;b&gt;&lt;font style=&quot;color: rgb(255, 255, 255); font-size: 35px;&quot;&gt;Fortinet&amp;nbsp;&lt;br&gt;Loja3&lt;/font&gt;&lt;/b&gt;" style="shape=mxgraph.cisco.security.firewall;sketch=0;html=1;pointerEvents=1;dashed=0;fillColor=#036897;strokeColor=#ffffff;strokeWidth=2;verticalLabelPosition=bottom;verticalAlign=top;align=center;outlineConnect=0;rotation=0;" parent="1" vertex="1">
          <mxGeometry x="-3076.244824733952" y="1355.6766239159083" width="146.77539414490448" height="150.6993550927978" as="geometry" />
        </mxCell>
        <mxCell id="vXIsHff3W-B7BgybX8nb-108" style="edgeStyle=none;html=1;labelBackgroundColor=none;startFill=0;endArrow=none;endFill=0;strokeWidth=2;fontFamily=Verdana;fontSize=12;exitX=0.55;exitY=0.95;exitDx=0;exitDy=0;exitPerimeter=0;entryX=0.25;entryY=0.09;entryDx=0;entryDy=0;entryPerimeter=0;" parent="1" source="vXIsHff3W-B7BgybX8nb-104" target="vXIsHff3W-B7BgybX8nb-107" edge="1">
          <mxGeometry relative="1" as="geometry">
            <mxPoint x="-2881.4587876444534" y="1331.2987870626619" as="sourcePoint" />
            <mxPoint x="-2900.663044822291" y="1377.8382937824965" as="targetPoint" />
          </mxGeometry>
        </mxCell>
        <mxCell id="vXIsHff3W-B7BgybX8nb-109" value="&lt;b style=&quot;&quot;&gt;&lt;font style=&quot;color: rgb(255, 255, 255); font-size: 25px;&quot;&gt;&amp;nbsp;VPN-LOJ3-01-P&lt;/font&gt;&lt;/b&gt;" style="html=1;strokeWidth=1;shadow=0;dashed=0;shape=mxgraph.ios7.misc.vpn;fillColor=#007AFF;strokeColor=none;buttonText=;strokeColor2=#222222;fontColor=#222222;fontSize=8;verticalLabelPosition=bottom;verticalAlign=top;align=center;sketch=0;" parent="1" vertex="1">
          <mxGeometry x="-2822.8034992927132" y="1355.6766239159083" width="85.047424644711" height="64.26884261310494" as="geometry" />
        </mxCell>
        <mxCell id="vXIsHff3W-B7BgybX8nb-110" style="edgeStyle=none;html=1;labelBackgroundColor=none;startFill=0;endArrow=none;endFill=0;strokeWidth=2;fontFamily=Verdana;fontSize=12;exitX=0.066;exitY=0.493;exitDx=0;exitDy=0;exitPerimeter=0;" parent="1" source="vXIsHff3W-B7BgybX8nb-109" target="vXIsHff3W-B7BgybX8nb-107" edge="1">
          <mxGeometry relative="1" as="geometry">
            <mxPoint x="-2873.2283917110935" y="1322.4341191160267" as="sourcePoint" />
            <mxPoint x="-2900.663044822291" y="1377.8382937824965" as="targetPoint" />
          </mxGeometry>
        </mxCell>
        <mxCell id="vXIsHff3W-B7BgybX8nb-111" value="&lt;b style=&quot;&quot;&gt;&lt;font style=&quot;color: rgb(255, 255, 255); font-size: 25px;&quot;&gt;&amp;nbsp;VPN-LOJ3-01-S&lt;/font&gt;&lt;/b&gt;" style="html=1;strokeWidth=1;shadow=0;dashed=0;shape=mxgraph.ios7.misc.vpn;fillColor=#007AFF;strokeColor=none;buttonText=;strokeColor2=#222222;fontColor=#222222;fontSize=8;verticalLabelPosition=bottom;verticalAlign=top;align=center;sketch=0;" parent="1" vertex="1">
          <mxGeometry x="-2839.2642911594317" y="1474.241557702154" width="85.047424644711" height="64.26884261310494" as="geometry" />
        </mxCell>
        <mxCell id="vXIsHff3W-B7BgybX8nb-112" style="edgeStyle=none;html=1;labelBackgroundColor=none;startFill=0;endArrow=none;endFill=0;strokeWidth=2;fontFamily=Verdana;fontSize=12;exitX=0.066;exitY=0.493;exitDx=0;exitDy=0;exitPerimeter=0;" parent="1" source="vXIsHff3W-B7BgybX8nb-111" target="vXIsHff3W-B7BgybX8nb-107" edge="1">
          <mxGeometry relative="1" as="geometry">
            <mxPoint x="-2873.2283917110935" y="1447.6475538622485" as="sourcePoint" />
            <mxPoint x="-2929.798646426382" y="1532.969982848612" as="targetPoint" />
          </mxGeometry>
        </mxCell>
        <mxCell id="vXIsHff3W-B7BgybX8nb-215" value="&lt;font face=&quot;Comic Sans MS&quot; style=&quot;font-size: 50px;&quot;&gt;&lt;b&gt;WAN 1&lt;/b&gt;&lt;/font&gt;" style="ellipse;shape=cloud;whiteSpace=wrap;html=1;rounded=0;shadow=0;comic=0;strokeWidth=1;fontFamily=Verdana;fontSize=12;" parent="1" vertex="1">
          <mxGeometry x="-2076.87" y="467" width="260.87" height="210.18" as="geometry" />
        </mxCell>
        <mxCell id="vXIsHff3W-B7BgybX8nb-216" value="&lt;font face=&quot;Comic Sans MS&quot; style=&quot;font-size: 50px;&quot;&gt;&lt;b&gt;WAN 2&lt;/b&gt;&lt;/font&gt;" style="ellipse;shape=cloud;whiteSpace=wrap;html=1;rounded=0;shadow=0;comic=0;strokeWidth=1;fontFamily=Verdana;fontSize=12;" parent="1" vertex="1">
          <mxGeometry x="-1792" y="473" width="251.19" height="192.18" as="geometry" />
        </mxCell>
        <mxCell id="uejTkQF33HHkR4xEWMwl-4" style="edgeStyle=none;html=1;labelBackgroundColor=none;startFill=0;endArrow=none;endFill=0;strokeWidth=2;fontFamily=Verdana;fontSize=12;entryX=0.55;entryY=0.95;entryDx=0;entryDy=0;entryPerimeter=0;exitX=1;exitY=0;exitDx=0;exitDy=0;exitPerimeter=0;" edge="1" parent="1" target="uejTkQF33HHkR4xEWMwl-5" source="vXIsHff3W-B7BgybX8nb-1">
          <mxGeometry relative="1" as="geometry">
            <mxPoint x="-1414" y="865" as="sourcePoint" />
            <mxPoint x="-1146.597146445527" y="999.9001076859179" as="targetPoint" />
          </mxGeometry>
        </mxCell>
        <mxCell id="uejTkQF33HHkR4xEWMwl-5" value="&lt;font face=&quot;Comic Sans MS&quot; style=&quot;font-size: 50px;&quot;&gt;&lt;b&gt;WAN 3&lt;/b&gt;&lt;/font&gt;" style="ellipse;shape=cloud;whiteSpace=wrap;html=1;rounded=0;shadow=0;comic=0;strokeWidth=1;fontFamily=Verdana;fontSize=12;" vertex="1" parent="1">
          <mxGeometry x="-1532" y="485" width="251.19" height="192.18" as="geometry" />
        </mxCell>
      </root>
    </mxGraphModel>
  </diagram>
</mxfile>
